# Blender 4.3.2
# www.blender.org
mtllib Pahvi_Grass.mtl
o Pahvi_Grass
v 1.300000 2.000000 0.100000
v 1.000000 0.000000 0.100000
v -1.394290 1.996096 0.100000
v -1.000000 0.000000 0.100000
v 1.300000 2.000000 -0.100000
v 1.000000 0.000000 -0.100000
v -1.394290 1.996096 -0.100000
v -1.000000 0.000000 -0.100000
v 0.600000 0.000000 -0.100000
v 0.200000 0.000000 -0.100000
v -0.200000 0.000000 -0.100000
v -0.600000 0.000000 -0.100000
v 0.600000 1.000000 0.100000
v 0.200000 2.000000 0.100000
v -0.200000 2.000000 0.100000
v -0.600000 1.200000 0.100000
v -0.600000 1.200000 -0.100000
v -0.200000 2.000000 -0.100000
v 0.200000 2.000000 -0.100000
v 0.600000 1.000000 -0.100000
v -0.600000 0.000000 0.100000
v -0.200000 0.000000 0.100000
v 0.200000 0.000000 0.100000
v 0.600000 0.000000 0.100000
vn 0.7079 0.7063 -0.0000
vn -0.9810 -0.1938 -0.0000
vn -0.0000 -0.0000 -1.0000
vn -0.0000 -1.0000 -0.0000
vn -0.0000 -0.0000 1.0000
vn 0.9889 -0.1483 -0.0000
vn -0.8192 0.5735 -0.0000
vn 0.9285 0.3714 -0.0000
vn -0.0000 1.0000 -0.0000
vn -0.8944 0.4472 -0.0000
vt 0.019225 0.457630
vt 0.131546 0.457630
vt 0.131546 0.504922
vt 0.019225 0.504922
vt 0.019225 0.741380
vt 0.131546 0.741380
vt 0.375000 0.200000
vt 0.625000 0.200000
vt 0.625000 0.250000
vt 0.375000 0.250000
vt 0.131546 0.788672
vt 0.019225 0.788672
vt 0.291538 0.675542
vt 0.658797 0.675542
vt 0.902441 0.918634
vt 0.291538 0.797962
vt 0.131546 0.032004
vt 0.131546 0.268463
vt 0.019225 0.268463
vt 0.019225 0.032004
vt 0.291538 0.185864
vt 0.903636 0.094049
vt 0.597587 0.308284
vt 0.291538 0.308284
vt 0.903636 0.430703
vt 0.291538 0.430703
vt 0.903636 0.553123
vt 0.291538 0.553123
vt 0.131546 0.977839
vt 0.019225 0.977839
vt 0.019225 0.930547
vt 0.131546 0.930547
vt 0.019225 0.883255
vt 0.131546 0.883256
vt 0.019225 0.835964
vt 0.131546 0.835964
vt 0.375000 0.000000
vt 0.625000 0.000000
vt 0.625000 0.050000
vt 0.375000 0.050000
vt 0.625000 0.100000
vt 0.375000 0.100000
vt 0.625000 0.150000
vt 0.375000 0.150000
vt 0.131546 0.315755
vt 0.019225 0.315755
vt 0.131546 0.363046
vt 0.019225 0.363046
vt 0.131546 0.410338
vt 0.019225 0.410338
s 0
usemtl Pahvi_grass_Mat
f 16/1/1 17/2/1 7/3/1 3/4/1
f 4/5/2 3/4/2 7/3/2 8/6/2
f 9/7/3 20/8/3 5/9/3 6/10/3
f 12/11/4 21/12/4 4/5/4 8/6/4
f 21/13/5 16/14/5 3/15/5 4/16/5
f 6/17/6 5/18/6 1/19/6 2/20/6
f 2/21/5 1/22/5 13/23/5 24/24/5
f 24/24/5 13/23/5 14/25/5 23/26/5
f 23/26/5 14/25/5 15/27/5 22/28/5
f 22/28/5 15/27/5 16/14/5 21/13/5
f 6/29/4 2/30/4 24/31/4 9/32/4
f 9/32/4 24/31/4 23/33/4 10/34/4
f 10/34/4 23/33/4 22/35/4 11/36/4
f 11/36/4 22/35/4 21/12/4 12/11/4
f 8/37/3 7/38/3 17/39/3 12/40/3
f 12/40/3 17/39/3 18/41/3 11/42/3
f 11/42/3 18/41/3 19/43/3 10/44/3
f 10/44/3 19/43/3 20/8/3 9/7/3
f 1/19/7 5/18/7 20/45/7 13/46/7
f 13/46/8 20/45/8 19/47/8 14/48/8
f 14/48/9 19/47/9 18/49/9 15/50/9
f 15/50/10 18/49/10 17/2/10 16/1/10
