# Blender 4.3.2
# www.blender.org
mtllib Pahvi_Puu.mtl
o Pahvi_Puu
v 0.084831 2.638603 -1.201788
v 0.084831 0.012150 -0.790796
v 0.084831 2.638603 1.201788
v 0.084831 0.012150 0.790796
v -0.084831 2.670377 -1.183804
v -0.084831 0.010536 -0.808897
v -0.084831 2.670377 1.183804
v -0.084831 0.010536 0.808897
v -0.084831 0.000000 0.000000
v 0.084831 3.340213 0.000000
v -0.084831 3.340213 0.000000
v 0.084831 0.000000 0.000000
v 0.084831 0.965011 -1.391750
v -0.084831 1.005510 1.365188
v 0.084831 0.965011 1.391750
v -0.084831 1.005510 -1.365188
v 0.084831 1.498916 0.000000
v -0.084831 1.499654 0.000000
v -0.084831 2.043966 1.076842
v 0.084831 2.018403 -1.089615
v 0.084831 2.018403 1.089615
v -0.084831 2.043966 -1.076842
v 0.084831 2.420106 0.000000
v -0.084831 2.420106 0.000000
v 0.084831 0.668021 -0.895196
v 0.084831 0.668021 0.895196
v -0.084831 0.676942 -0.902912
v 0.084831 0.750000 0.000000
v -0.084831 0.750000 0.000000
v -0.084831 0.676942 0.902912
v -0.084831 3.032118 -0.577657
v 0.084831 0.002119 -0.398336
v -0.084831 0.001511 -0.407481
v 0.084831 3.018546 -0.585489
v 0.084831 1.246535 -0.686071
v -0.084831 1.269327 -0.672683
v 0.084831 2.268582 -0.505496
v -0.084831 2.276936 -0.503198
v -0.084831 0.773441 -0.411619
v 0.084831 0.772820 -0.405871
v -0.084831 0.001511 0.407481
v 0.084831 3.018546 0.585489
v -0.084831 3.032118 0.577657
v 0.084831 0.002119 0.398336
v -0.084831 1.269327 0.672683
v 0.084831 1.246535 0.686071
v -0.084831 2.276936 0.503198
v 0.084831 2.268582 0.505496
v 0.084831 0.772820 0.405871
v -0.084831 0.773441 0.411619
vn 0.0746 0.8526 0.5173
vn -0.1177 -0.1719 0.9781
vn -1.0000 -0.0000 -0.0000
vn 0.0085 -0.9997 0.0240
vn 1.0000 -0.0000 -0.0000
vn -0.1177 -0.1719 -0.9781
vn 0.0019 -1.0000 -0.0045
vn 0.0242 0.8791 -0.4760
vn -0.1506 -0.8280 -0.5402
vn -0.1506 -0.8280 0.5402
vn -0.0586 0.2712 -0.9607
vn -0.0586 0.2712 0.9607
vn 0.0719 -0.1480 0.9864
vn 0.0719 -0.1480 -0.9864
vn 0.0746 0.8526 -0.5173
vn 0.0085 -0.9997 -0.0240
vn 0.0019 -1.0000 0.0045
vn 0.0242 0.8791 0.4760
vt 0.000000 0.651113
vt 0.126152 0.651113
vt 0.126152 0.703340
vt 0.000000 0.703340
vt 0.000000 0.777505
vt 0.126152 0.777505
vt 0.726300 0.678530
vt 0.726300 0.892744
vt 0.854564 0.849107
vt 0.854564 0.656711
vt 0.126152 0.049443
vt 0.000000 0.049443
vt 0.000000 -0.000000
vt 0.126152 -0.000000
vt 0.469772 0.678530
vt 0.469772 0.892744
vt 0.341508 0.849107
vt 0.341508 0.656711
vt 0.126152 0.420269
vt 0.126152 0.494434
vt 0.000000 0.494434
vt 0.000000 0.420269
vt 0.598036 0.936381
vt 0.598036 0.700348
vt 0.126152 0.148330
vt 0.000000 0.148330
vt 0.000000 0.098887
vt 0.126152 0.098887
vt 0.000000 0.546660
vt 0.126152 0.546660
vt 0.126152 0.598887
vt 0.000000 0.598887
vt 0.469772 0.271919
vt 0.469772 0.464315
vt 0.598036 0.464315
vt 0.598036 0.271919
vt 0.726300 0.271919
vt 0.726300 0.464315
vt 0.126152 0.271939
vt 0.126152 0.346104
vt 0.000000 0.346104
vt 0.000000 0.271939
vt 0.341508 0.464315
vt 0.341508 0.271919
vt 0.854564 0.464315
vt 0.854564 0.271919
vt 0.000000 0.925835
vt 0.000000 0.851670
vt 0.126152 0.851670
vt 0.126152 0.925835
vt 0.000000 1.000000
vt 0.126152 1.000000
vt 0.726300 0.079523
vt 0.854564 0.079523
vt 0.469772 0.079523
vt 0.341508 0.079523
vt 0.126152 0.197774
vt 0.000000 0.197774
vt 0.598036 0.079523
s 0
usemtl PahviBase
f 42/1/1 43/2/1 7/3/1 3/4/1
f 21/5/2 3/4/2 7/3/2 19/6/2
f 38/7/3 31/8/3 5/9/3 22/10/3
f 41/11/4 44/12/4 4/13/4 8/14/4
f 48/15/5 42/16/5 3/17/5 21/18/5
f 22/19/6 5/20/6 1/21/6 20/22/6
f 37/7/5 34/8/5 10/23/5 23/24/5
f 33/25/7 32/26/7 12/27/7 9/28/7
f 47/15/3 43/16/3 11/23/3 24/24/3
f 34/29/8 31/30/8 11/31/8 10/32/8
f 50/33/3 45/34/3 18/35/3 29/36/3
f 40/37/5 35/38/5 17/35/5 28/36/5
f 27/39/9 16/40/9 13/41/9 25/42/9
f 49/33/5 46/34/5 15/43/5 26/44/5
f 39/37/3 36/38/3 16/45/3 27/46/3
f 26/47/10 15/48/10 14/49/10 30/50/10
f 45/34/3 47/15/3 24/24/3 18/35/3
f 35/38/5 37/7/5 23/24/5 17/35/5
f 16/40/11 22/19/11 20/22/11 13/41/11
f 46/34/5 48/15/5 21/18/5 15/43/5
f 36/38/3 38/7/3 22/10/3 16/45/3
f 15/48/12 21/5/12 19/6/12 14/49/12
f 4/51/13 26/47/13 30/50/13 8/52/13
f 33/53/3 39/37/3 27/46/3 6/54/3
f 44/55/5 49/33/5 26/44/5 4/56/5
f 6/57/14 27/39/14 25/42/14 2/58/14
f 32/53/5 40/37/5 28/36/5 12/59/5
f 41/55/3 50/33/3 29/36/3 9/59/3
f 2/54/5 25/46/5 40/37/5 32/53/5
f 9/59/3 29/36/3 39/37/3 33/53/3
f 18/35/3 24/24/3 38/7/3 36/38/3
f 13/45/5 20/10/5 37/7/5 35/38/5
f 29/36/3 18/35/3 36/38/3 39/37/3
f 25/46/5 13/45/5 35/38/5 40/37/5
f 1/21/15 5/20/15 31/30/15 34/29/15
f 6/57/16 2/58/16 32/26/16 33/25/16
f 20/10/5 1/9/5 34/8/5 37/7/5
f 24/24/3 11/23/3 31/8/3 38/7/3
f 8/56/3 30/44/3 50/33/3 41/55/3
f 12/59/5 28/36/5 49/33/5 44/55/5
f 17/35/5 23/24/5 48/15/5 46/34/5
f 14/43/3 19/18/3 47/15/3 45/34/3
f 28/36/5 17/35/5 46/34/5 49/33/5
f 30/44/3 14/43/3 45/34/3 50/33/3
f 19/18/3 7/17/3 43/16/3 47/15/3
f 23/24/5 10/23/5 42/16/5 48/15/5
f 9/28/17 12/27/17 44/12/17 41/11/17
f 10/32/18 11/31/18 43/2/18 42/1/18
