# Blender 4.3.2
# www.blender.org
mtllib Pahvi_Kives.mtl
o Pahvi_Kives
v 0.128106 2.026481 -1.174953
v 0.128106 -0.012973 -1.131499
v 0.128106 2.100786 1.209552
v 0.128106 0.000000 1.255567
v -0.128106 2.022963 -1.145283
v -0.128106 -0.010300 -1.107447
v -0.128106 2.086994 1.171491
v -0.128106 0.000000 1.209165
v -0.128106 -0.001609 -0.011263
v 0.128106 2.366992 0.029322
v -0.128106 2.306273 0.023206
v 0.128106 -0.002298 -0.016083
v 0.128106 0.811636 -1.528737
v -0.128106 1.021808 1.621286
v 0.128106 1.020555 1.730018
v -0.128106 0.843480 -1.440186
v 0.128106 1.000950 0.014329
v -0.128106 1.000764 0.010855
v -0.128106 2.236899 -0.601073
v 0.128106 -0.010431 -0.582333
v -0.128106 -0.008250 -0.564111
v 0.128106 2.286851 -0.620900
v 0.128106 0.919577 -0.766038
v -0.128106 0.940466 -0.693157
v -0.128106 0.000000 0.585026
v 0.128106 2.291013 0.685498
v -0.128106 2.241505 0.650874
v 0.128106 0.000000 0.614357
v -0.128106 1.021527 0.857850
v 0.128106 1.031319 0.989881
v -0.128106 1.556504 1.405980
v 0.128106 1.346301 -1.448124
v 0.128106 1.567851 1.491079
v -0.128106 1.370961 -1.370954
v 0.128106 1.669803 0.011066
v -0.128106 1.628311 0.006895
v 0.128106 1.532810 -0.732270
v -0.128106 1.524372 -0.678125
v -0.128106 1.592776 0.690696
v 0.128106 1.625700 0.750916
v 0.128106 0.409117 -1.359589
v 0.128106 0.500000 1.657571
v -0.128106 0.424568 -1.302519
v 0.128106 0.494297 -0.039185
v -0.128106 0.495398 -0.032040
v -0.128106 0.500043 1.559850
v -0.128106 0.471996 -0.662093
v 0.128106 0.462865 -0.707333
v 0.128106 0.510439 0.939877
v -0.128106 0.508500 0.841775
vn -0.1597 0.9374 0.3094
vn -0.2312 0.4247 0.8753
vn -1.0000 -0.0000 -0.0000
vn -0.0000 -1.0000 -0.0000
vn 1.0000 -0.0000 -0.0000
vn -0.1779 0.3451 -0.9216
vn -0.0050 -0.9999 0.0132
vn -0.2126 0.9705 -0.1138
vn -0.2860 -0.3353 -0.8976
vn -0.3713 -0.1183 0.9209
vn -0.1329 0.9099 -0.3930
vn -0.0091 -0.9999 0.0042
vn -0.0015 -1.0000 0.0032
vn -0.2172 0.9703 0.1064
vn -0.2916 0.1336 -0.9472
vn -0.3357 0.3646 0.8685
vn -0.2193 -0.5867 0.7795
vn -0.1557 -0.4374 -0.8857
vt 0.225479 0.560009
vt 0.024200 0.558709
vt 0.025075 0.504086
vt 0.226307 0.503932
vt 0.226473 0.443301
vt 0.025111 0.445740
vt 0.708732 0.296111
vt 0.903126 0.317133
vt 0.844759 0.168660
vt 0.666878 0.107092
vt 0.016545 0.210900
vt 0.217541 0.201550
vt 0.221483 0.265932
vt 0.020382 0.273568
vt 0.736377 0.685987
vt 0.917889 0.668139
vt 0.865991 0.811113
vt 0.720594 0.887920
vt 0.015934 0.813455
vt 0.019074 0.744120
vt 0.220052 0.753866
vt 0.216797 0.827529
vt 0.711034 0.281340
vt 0.916754 0.311724
vt 0.938618 0.489119
vt 0.748409 0.484139
vt 0.009481 0.095514
vt 0.210184 0.081387
vt 0.213665 0.138249
vt 0.012880 0.151028
vt 0.727394 0.669557
vt 0.904382 0.658693
vt 0.922053 0.487451
vt 0.737089 0.483001
vt 0.222254 0.692323
vt 0.021112 0.685332
vt 0.022857 0.622170
vt 0.224097 0.626444
vt 0.431579 0.710775
vt 0.571544 0.715161
vt 0.565880 0.484081
vt 0.428004 0.472378
vt 0.419128 0.288143
vt 0.543730 0.272127
vt 0.565930 0.485029
vt 0.427704 0.470429
vt 0.009848 0.911136
vt 0.013114 0.866898
vt 0.213972 0.881848
vt 0.210603 0.925641
vt 0.432108 0.737539
vt 0.574216 0.751182
vt 0.571279 0.953108
vt 0.429260 0.933343
vt 0.421620 0.300485
vt 0.549429 0.292010
vt 0.522969 0.088204
vt 0.408680 0.125762
vt 0.224911 0.330380
vt 0.226462 0.383227
vt 0.025024 0.387755
vt 0.023531 0.334927
vt 0.404464 0.110193
vt 0.514281 0.064045
vt 0.006140 0.040959
vt 0.206807 0.026246
vt 0.660150 0.086038
vt 0.845719 0.160565
vt 0.429272 0.906683
vt 0.571621 0.923444
vt 0.717498 0.864703
vt 0.862228 0.800729
vt 0.292848 0.811007
vt 0.292848 0.640728
vt 0.292221 0.476732
vt 0.292848 0.648730
vt 0.289309 0.172421
vt 0.290002 0.322246
vt 0.292409 0.478047
vt 0.290597 0.327217
vt 0.290038 0.178982
vt 0.292848 0.823667
vt 0.006140 0.958938
vt 0.206800 0.973754
s 0
usemtl Pahvi_Kives
f 26/1/1 27/2/1 7/3/1 3/4/1
f 33/5/2 3/4/2 7/3/2 31/6/2
f 38/7/3 19/8/3 5/9/3 34/10/3
f 25/11/4 28/12/4 4/13/4 8/14/4
f 40/15/5 26/16/5 3/17/5 33/18/5
f 34/19/6 5/20/6 1/21/6 32/22/6
f 37/23/5 22/24/5 10/25/5 35/26/5
f 21/27/7 20/28/7 12/29/7 9/30/7
f 39/31/3 27/32/3 11/33/3 36/34/3
f 22/35/8 19/36/8 11/37/8 10/38/8
f 50/39/3 29/40/3 18/41/3 45/42/3
f 48/43/5 23/44/5 17/45/5 44/46/5
f 43/47/9 16/48/9 13/49/9 41/50/9
f 49/51/5 30/52/5 15/53/5 42/54/5
f 47/55/3 24/56/3 16/57/3 43/58/3
f 42/59/10 15/60/10 14/61/10 46/62/10
f 45/42/3 18/41/3 24/56/3 47/55/3
f 41/63/5 13/64/5 23/44/5 48/43/5
f 1/21/11 5/20/11 19/36/11 22/35/11
f 6/65/12 2/66/12 20/28/12 21/27/12
f 32/67/5 1/68/5 22/24/5 37/23/5
f 36/34/3 11/33/3 19/8/3 38/7/3
f 44/46/5 17/45/5 30/52/5 49/51/5
f 46/69/3 14/70/3 29/40/3 50/39/3
f 31/71/3 7/72/3 27/32/3 39/31/3
f 35/26/5 10/25/5 26/16/5 40/15/5
f 9/30/13 12/29/13 28/12/13 25/11/13
f 10/38/14 11/37/14 27/2/14 26/1/14
f 17/45/5 35/26/5 40/15/5 30/52/5
f 14/70/3 31/71/3 39/31/3 29/40/3
f 18/41/3 36/34/3 38/7/3 24/56/3
f 13/64/5 32/67/5 37/23/5 23/44/5
f 29/40/3 39/31/3 36/34/3 18/41/3
f 23/44/5 37/23/5 35/26/5 17/45/5
f 16/48/15 34/19/15 32/22/15 13/49/15
f 30/52/5 40/15/5 33/18/5 15/53/5
f 24/56/3 38/7/3 34/10/3 16/57/3
f 15/60/16 33/5/16 31/6/16 14/61/16
f 8/73/3 46/69/3 50/39/3 25/74/3
f 12/75/5 44/46/5 49/51/5 28/76/5
f 2/77/5 41/63/5 48/43/5 20/78/5
f 9/79/3 45/42/3 47/55/3 21/80/3
f 4/13/17 42/59/17 46/62/17 8/14/17
f 21/80/3 47/55/3 43/58/3 6/81/3
f 28/76/5 49/51/5 42/54/5 4/82/5
f 6/83/18 43/47/18 41/50/18 2/84/18
f 20/78/5 48/43/5 44/46/5 12/75/5
f 25/74/3 50/39/3 45/42/3 9/79/3
