# Blender 4.3.2
# www.blender.org
mtllib PilviObjekti.mtl
o Pahvi_pilvi
v -0.775830 0.965101 0.354241
v -0.912559 -0.832541 0.354241
v 0.846799 0.855718 0.354241
v 1.087441 -0.832541 0.354241
v -0.775830 0.965101 0.436412
v -0.912559 -0.832541 0.436412
v 0.846799 0.855718 0.436412
v 1.087441 -0.832541 0.436412
v -0.412559 -0.832541 0.436412
v 0.087441 -0.832541 0.436412
v 0.587441 -0.832541 0.436412
v -0.418028 0.992447 0.354241
v 0.081972 0.992447 0.354241
v 0.581972 0.992447 0.354241
v 0.581972 0.992447 0.436412
v 0.081972 0.992447 0.436412
v -0.418028 0.992447 0.436412
v 0.587441 -0.832541 0.354241
v 0.087441 -0.832541 0.354241
v -0.412559 -0.832541 0.354241
v -1.147732 0.754966 0.354241
v -1.322745 0.156521 0.354241
v -1.382906 -0.338010 0.354241
v 1.705455 -0.228627 0.436412
v 1.492158 0.140114 0.436412
v 1.087441 0.667459 0.436412
v 1.087441 0.667459 0.354241
v 1.492158 0.140114 0.354241
v 1.705455 -0.228627 0.354241
v -1.147732 0.754966 0.436412
v -1.322745 0.156521 0.436412
v -1.382906 -0.338010 0.436412
v -0.412559 0.667459 0.354241
v -0.412559 0.167459 0.354241
v -0.412559 -0.332541 0.354241
v 0.087441 0.667459 0.354241
v 0.087441 0.167459 0.354241
v 0.087441 -0.332541 0.354241
v 0.587441 0.667459 0.354241
v 0.587441 0.167459 0.354241
v 0.587441 -0.332541 0.354241
v 0.587441 0.667459 0.436412
v 0.587441 0.167459 0.436412
v 0.587441 -0.332541 0.436412
v 0.087441 0.667459 0.436412
v 0.087441 0.167459 0.436412
v 0.087441 -0.332541 0.436412
v -0.412559 0.667459 0.436412
v -0.412559 0.167459 0.436412
v -0.412559 -0.332541 0.436412
vn 0.4588 0.8886 -0.0000
vn 0.6162 0.7876 -0.0000
vn -0.0000 -0.0000 1.0000
vn -0.0000 -1.0000 -0.0000
vn -0.0000 -0.0000 -1.0000
vn -0.4919 0.8706 -0.0000
vn -0.0762 0.9971 -0.0000
vn -0.0000 1.0000 -0.0000
vn -0.7246 -0.6892 -0.0000
vn -0.9927 0.1208 -0.0000
vn -0.9598 0.2807 -0.0000
vn 0.6989 -0.7152 -0.0000
vn 0.8656 0.5007 -0.0000
vn 0.7933 0.6088 -0.0000
vt 0.066286 0.287613
vt 0.028146 0.287613
vt 0.028146 0.055539
vt 0.066286 0.055539
vt 0.749026 0.692428
vt 0.749026 0.879935
vt 0.936533 0.879935
vt 0.936533 0.692428
vt 0.028146 0.287613
vt 0.066286 0.287613
vt 0.374013 0.692428
vt 0.374013 0.879935
vt 0.186506 0.879935
vt 0.186506 0.692428
vt 0.028146 0.983834
vt 0.066286 0.983834
vt 0.561520 0.879935
vt 0.561520 0.692428
vt 0.066286 0.751760
vt 0.028146 0.751760
vt 0.066286 0.519686
vt 0.028146 0.519686
vt 0.374013 0.879935
vt 0.374013 0.692428
vt 0.561520 0.879935
vt 0.028146 0.519686
vt 0.066286 0.519686
vt 0.561520 0.129908
vt 0.561520 0.317415
vt 0.749026 0.317415
vt 0.749026 0.129908
vt 0.561520 0.504922
vt 0.749026 0.504922
vt 0.374013 0.129908
vt 0.374013 0.317415
vt 0.374013 0.504922
vt 0.186506 0.129908
vt 0.186506 0.317415
vt 0.186506 0.504922
vt 0.561520 0.129908
vt 0.374013 0.317415
vt 0.374013 0.129908
vt 0.936533 0.129908
vt 0.936533 0.317415
vt 0.936533 0.504922
vt 0.028146 0.983834
vt 0.066286 0.983834
s 0
usemtl pilvi_texture
f 14/1/1 15/2/1 7/3/1 3/4/1
f 27/4/2 3/4/2 7/3/2 26/3/2
f 48/5/3 17/6/3 5/7/3 30/8/3
f 11/9/4 18/10/4 4/4/4 8/3/4
f 39/11/5 14/12/5 3/13/5 27/14/5
f 30/15/6 5/15/6 1/16/6 21/16/6
f 21/8/5 1/7/5 12/6/5 33/5/5
f 33/5/5 12/6/5 13/17/5 36/18/5
f 36/18/5 13/17/5 14/12/5 39/11/5
f 6/15/4 2/16/4 20/19/4 9/20/4
f 9/20/4 20/19/4 19/21/4 10/22/4
f 10/22/4 19/21/4 18/10/4 11/9/4
f 26/14/3 7/13/3 15/23/3 42/24/3
f 42/24/3 15/23/3 16/25/3 45/18/3
f 45/18/3 16/25/3 17/6/3 48/5/3
f 1/16/7 5/15/7 17/20/7 12/19/7
f 12/19/8 17/20/8 16/26/8 13/27/8
f 13/27/8 16/26/8 15/2/8 14/1/8
f 10/28/3 47/29/3 50/30/3 9/31/3
f 47/29/3 46/32/3 49/33/3 50/30/3
f 46/32/3 45/18/3 48/5/3 49/33/3
f 11/34/3 44/35/3 47/29/3 10/28/3
f 44/35/3 43/36/3 46/32/3 47/29/3
f 43/36/3 42/24/3 45/18/3 46/32/3
f 8/37/3 24/38/3 44/35/3 11/34/3
f 24/38/3 25/39/3 43/36/3 44/35/3
f 25/39/3 26/14/3 42/24/3 43/36/3
f 19/40/5 38/29/5 41/41/5 18/42/5
f 38/29/5 37/32/5 40/36/5 41/41/5
f 37/32/5 36/18/5 39/11/5 40/36/5
f 20/31/5 35/30/5 38/29/5 19/40/5
f 35/30/5 34/33/5 37/32/5 38/29/5
f 34/33/5 33/5/5 36/18/5 37/32/5
f 2/43/5 23/44/5 35/30/5 20/31/5
f 23/44/5 22/45/5 34/33/5 35/30/5
f 22/45/5 21/8/5 33/5/5 34/33/5
f 6/15/9 32/46/9 23/47/9 2/16/9
f 32/46/10 31/46/10 22/47/10 23/47/10
f 31/46/11 30/15/11 21/16/11 22/47/11
f 18/42/5 41/41/5 29/38/5 4/37/5
f 41/41/5 40/36/5 28/39/5 29/38/5
f 40/36/5 39/11/5 27/14/5 28/39/5
f 9/31/3 50/30/3 32/44/3 6/43/3
f 50/30/3 49/33/3 31/45/3 32/44/3
f 49/33/3 48/5/3 30/8/3 31/45/3
f 4/4/12 29/4/12 24/3/12 8/3/12
f 29/4/13 28/4/13 25/3/13 24/3/13
f 28/4/14 27/4/14 26/3/14 25/3/14
