# Blender 4.3.2
# www.blender.org
mtllib Scifi_gun.mtl
o Scifi_gun
v -0.079715 0.169601 1.017998
v -0.073356 0.240830 1.017998
v -0.086777 -0.012913 1.119927
v 0.000000 -0.039292 1.423986
v 0.000000 -0.043090 1.119927
v 0.000000 0.367096 1.119927
v 0.000000 0.268347 1.017998
v 0.000000 0.063254 1.016604
v 0.000000 0.231066 1.017649
v 0.000000 0.114528 1.016952
v 0.000000 0.232074 0.719334
v 0.000000 0.114976 0.722387
v 0.000000 0.264636 0.619994
v 0.000000 0.066864 0.621737
v 0.000000 0.321874 0.619383
v 0.000000 0.008974 0.620910
v -0.138937 0.127661 0.320939
v -0.087918 0.197658 0.319412
v -0.159715 0.172145 0.319490
v 0.000000 0.362470 1.423986
v -0.156366 0.287168 1.423986
v -0.194986 0.161082 1.423986
v -0.086777 -0.017724 1.423986
v -0.157304 0.161082 1.119927
v -0.157304 0.287168 1.119927
v -0.051732 0.072933 1.017998
v -0.079715 0.172145 0.719490
v -0.036678 0.254589 1.017998
v -0.078183 0.324819 1.423986
v -0.078652 0.327132 1.119927
v -0.047940 0.215222 1.017801
v -0.053849 0.213557 0.719412
v -0.058937 0.127661 0.720938
v -0.058937 0.126165 1.017475
v -0.140881 0.067645 1.423986
v -0.125765 0.067645 1.119927
v -0.072084 0.118087 1.017998
v -0.159715 0.172145 0.619490
v -0.133849 0.213557 0.619412
v -0.138937 0.127661 0.620939
v -0.159715 0.172145 0.519490
v -0.087918 0.197658 0.519412
v -0.138937 0.127661 0.520939
v 0.000000 0.011534 0.321748
v -0.101756 0.284987 0.319408
v 0.000000 0.321874 0.319408
v 0.000000 0.321874 0.519408
v -0.101756 0.284987 0.619383
v -0.101756 0.284987 0.519408
v 0.000000 0.008974 0.520934
v -0.046879 0.098931 0.521471
v -0.094577 0.054766 0.621459
v -0.046879 0.098931 0.321471
v 0.000000 0.011534 0.321748
v -0.156366 -0.063768 0.321748
v -0.194986 -0.232970 0.321748
v -0.086777 -0.368660 0.321748
v 0.086777 -0.368660 0.321748
v 0.194986 -0.232970 0.321748
v 0.156366 -0.063768 0.321748
v -0.156366 -0.063768 0.321748
v -0.194986 -0.232970 0.321748
v -0.086777 -0.368660 0.321748
v 0.086777 -0.368660 0.321748
v 0.194986 -0.232970 0.321748
v 0.156366 -0.063768 0.321748
v 0.000000 -0.028466 0.221748
v -0.125093 -0.088707 0.221748
v -0.155988 -0.224069 0.221748
v -0.069421 -0.332621 0.221748
v 0.000000 -0.178563 0.360838
v -0.194986 -0.232970 0.321748
v 0.000000 -0.180543 0.192841
v 0.000000 -0.368660 0.321748
v -0.078183 -0.026117 0.321748
v 0.000000 -0.332621 0.221748
v -0.119818 0.060339 0.287165
v -0.062547 -0.058587 0.221748
v -0.034711 -0.332621 0.221748
v -0.077994 -0.202306 0.207295
v -0.138937 0.127661 0.180939
v -0.104182 0.027869 0.187165
v 0.000000 0.025131 0.187165
v -0.159715 0.172145 0.179490
v -0.087918 0.197658 0.179412
v -0.101756 0.284987 0.179408
v 0.000000 0.264635 -0.213325
v 0.000000 0.321874 0.179408
v -0.074646 0.241740 -0.173325
v -0.102749 0.219691 -0.121429
v -0.135394 0.172291 -0.077165
v 0.000000 0.178015 -0.173325
v -0.071949 0.177061 -0.173325
v 0.000000 0.293254 0.003042
v -0.088201 0.263364 0.003042
v -0.101439 0.208674 0.003044
v -0.152134 0.172218 0.003083
v -0.136699 0.100879 -0.079101
v -0.150829 0.100831 0.012462
v 0.000000 0.108015 -0.143325
v -0.071949 0.107061 -0.143325
v 0.000000 0.059860 -0.076487
v 0.000000 -0.023877 -0.081787
v 0.000000 -0.123513 -0.089207
v 0.000000 -0.234461 -0.129600
v 0.000000 -0.274375 0.034923
v 0.000000 -0.136232 0.089926
v 0.000000 -0.024937 0.085686
v 0.000000 0.058800 0.068727
v -0.127505 0.044211 0.101934
v -0.068334 -0.014648 -0.055981
v -0.087759 -0.014714 0.069899
v -0.068334 -0.122659 -0.050818
v -0.087759 -0.144134 0.073216
v -0.068334 -0.191103 -0.085283
v -0.087759 -0.226204 0.035604
v 0.000000 0.021827 0.130066
v 0.079715 0.169601 1.017998
v 0.073356 0.240830 1.017998
v 0.086777 -0.012913 1.119927
v 0.138937 0.127661 0.320939
v 0.087918 0.197658 0.319412
v 0.159715 0.172145 0.319490
v 0.156366 0.287168 1.423986
v 0.194986 0.161082 1.423986
v 0.086777 -0.017724 1.423986
v 0.157304 0.161082 1.119927
v 0.157304 0.287168 1.119927
v 0.051732 0.072933 1.017998
v 0.079715 0.172145 0.719490
v 0.036678 0.254589 1.017998
v 0.078183 0.324819 1.423986
v 0.078652 0.327132 1.119927
v 0.047940 0.215222 1.017801
v 0.053849 0.213557 0.719412
v 0.058937 0.127661 0.720938
v 0.058937 0.126165 1.017475
v 0.140881 0.067645 1.423986
v 0.125765 0.067645 1.119927
v 0.072084 0.118087 1.017998
v 0.159715 0.172145 0.619490
v 0.133849 0.213557 0.619412
v 0.138937 0.127661 0.620939
v 0.159715 0.172145 0.519490
v 0.087918 0.197658 0.519412
v 0.138937 0.127661 0.520939
v 0.101756 0.284987 0.319408
v 0.101756 0.284987 0.619383
v 0.101756 0.284987 0.519408
v 0.046879 0.098931 0.521471
v 0.094577 0.054766 0.621459
v 0.046879 0.098931 0.321471
v 0.156366 -0.063768 0.321748
v 0.194986 -0.232970 0.321748
v 0.086777 -0.368660 0.321748
v -0.086777 -0.368660 0.321748
v -0.194986 -0.232970 0.321748
v -0.156366 -0.063768 0.321748
v 0.156366 -0.063768 0.321748
v 0.194986 -0.232970 0.321748
v 0.086777 -0.368660 0.321748
v -0.086777 -0.368660 0.321748
v -0.194986 -0.232970 0.321748
v -0.156366 -0.063768 0.321748
v 0.125093 -0.088707 0.221748
v 0.155988 -0.224069 0.221748
v 0.069421 -0.332621 0.221748
v 0.194986 -0.232970 0.321748
v 0.078183 -0.026117 0.321748
v 0.119818 0.060339 0.287165
v 0.062547 -0.058587 0.221748
v 0.034711 -0.332621 0.221748
v 0.077994 -0.202306 0.207295
v 0.138937 0.127661 0.180939
v 0.104182 0.027869 0.187165
v 0.159715 0.172145 0.179490
v 0.087918 0.197658 0.179412
v 0.101756 0.284987 0.179408
v 0.074646 0.241740 -0.173325
v 0.102749 0.219691 -0.121429
v 0.135394 0.172291 -0.077165
v 0.071949 0.177061 -0.173325
v 0.088201 0.263364 0.003042
v 0.101439 0.208674 0.003044
v 0.152134 0.172218 0.003083
v 0.136699 0.100879 -0.079101
v 0.150829 0.100831 0.012462
v 0.071949 0.107061 -0.143325
v 0.127505 0.044211 0.101934
v 0.068334 -0.014648 -0.055981
v 0.087759 -0.014714 0.069899
v 0.068334 -0.122659 -0.050818
v 0.087759 -0.144134 0.073216
v 0.068334 -0.191103 -0.085283
v 0.087759 -0.226204 0.035604
vn -0.4435 0.8962 0.0075
vn -0.4435 0.8962 0.0106
vn -0.9867 0.1511 -0.0596
vn -0.9063 -0.4153 -0.0787
vn -0.8899 -0.4532 -0.0519
vn -0.8904 -0.4522 -0.0526
vn -0.2857 -0.9583 -0.0016
vn -0.3264 0.7008 -0.6343
vn -0.3268 0.7017 -0.6331
vn -0.3220 0.6912 -0.6470
vn -0.7924 -0.0925 -0.6029
vn -0.7812 0.0252 -0.6237
vn -0.7924 -0.0916 -0.6031
vn -0.7482 -0.3532 -0.5617
vn -0.7691 -0.2939 -0.5676
vn -0.7756 -0.2730 -0.5691
vn -0.2072 -0.6962 -0.6873
vn -0.0000 -0.7116 -0.7025
vn -0.0000 -0.0042 -1.0000
vn -0.0194 -0.0042 -0.9998
vn -0.0264 -0.0047 -0.9996
vn -0.0051 0.0026 -1.0000
vn -0.0047 0.0062 -1.0000
vn -0.0050 0.0039 -1.0000
vn -0.0000 0.0053 -1.0000
vn -0.0078 0.0053 -1.0000
vn -0.8337 0.5522 0.0091
vn -0.9041 -0.4274 -0.0029
vn -0.3314 0.7115 -0.6196
vn -0.4435 0.8962 0.0044
vn -0.7383 -0.3256 0.5906
vn -0.0000 0.0078 -1.0000
vn -0.3316 0.9285 0.1674
vn -0.3198 0.9475 0.0021
vn -0.3306 0.9321 0.1476
vn -0.2021 -0.9794 -0.0032
vn -0.2832 -0.9368 0.2055
vn -0.0000 -0.9833 0.1822
vn -0.0000 -1.0000 -0.0033
vn -0.0364 -0.0054 -0.9993
vn -0.8718 -0.4891 -0.0255
vn -0.7015 0.4392 0.5612
vn -0.9060 -0.4232 -0.0000
vn -0.5550 0.8094 -0.1918
vn -0.4367 0.8956 -0.0850
vn -0.4508 0.8873 -0.0972
vn -0.3348 0.9423 -0.0000
vn -0.3408 0.9401 -0.0000
vn -0.3343 0.8996 0.2811
vn -0.9935 -0.0327 -0.1090
vn -0.9666 0.1111 -0.2309
vn -0.9928 -0.0231 -0.1173
vn -0.0000 0.0062 1.0000
vn -0.0048 0.0062 1.0000
vn -0.6361 -0.7565 -0.1517
vn -0.7910 -0.5905 -0.1598
vn -0.6598 -0.6851 -0.3087
vn -0.6134 -0.7277 -0.3070
vn -0.4436 -0.8826 -0.1556
vn -0.5676 -0.7650 -0.3043
vn -0.3305 -0.8794 0.3426
vn -0.0000 -0.0032 1.0000
vn -0.0025 -0.0032 1.0000
vn -0.2979 -0.9546 -0.0000
vn -0.8841 -0.4674 -0.0030
vn -0.9877 -0.1565 -0.0000
vn -0.9198 -0.3924 -0.0055
vn -0.0000 1.0000 -0.0000
vn -0.9172 0.2093 -0.3390
vn -0.1164 -0.0260 -0.9929
vn -0.1202 -0.0188 -0.9926
vn -0.0981 -0.1458 -0.9844
vn -0.1042 -0.1164 -0.9877
vn -0.4082 0.8476 -0.3390
vn -0.1285 0.0726 -0.9891
vn -0.1473 0.1258 -0.9810
vn -0.1546 0.1233 0.9803
vn -0.1354 0.0048 0.9908
vn -0.0000 0.0088 1.0000
vn -0.0000 0.1248 0.9922
vn -0.0000 0.0206 -0.9998
vn -0.0000 -0.1659 -0.9861
vn -0.7355 -0.5866 -0.3390
vn -0.0000 -0.9408 -0.3390
vn -0.1067 -0.1533 0.9824
vn -0.0000 -0.1542 0.9880
vn -0.0000 0.1531 -0.9882
vn -0.9010 -0.4339 -0.0000
vn -0.9342 -0.3565 -0.0126
vn -0.9383 -0.3439 0.0373
vn -0.2521 0.0652 0.9655
vn 0.0698 -0.4250 -0.9025
vn -0.0000 -0.4260 -0.9047
vn -0.1541 -0.4777 0.8649
vn -0.9523 -0.3048 0.0136
vn -0.9546 -0.2956 0.0366
vn -0.9965 -0.0840 -0.0000
vn -0.9966 -0.0824 -0.0000
vn -0.3929 0.9194 0.0176
vn -0.3930 0.9194 0.0176
vn -0.3355 0.9393 -0.0717
vn -0.3354 0.9393 -0.0723
vn -0.3313 0.9333 -0.1385
vn -0.3313 0.9333 -0.1384
vn -0.8319 0.5549 -0.0080
vn -0.9769 0.2124 -0.0251
vn -0.5812 0.8137 0.0118
vn -0.0000 -0.3277 -0.9448
vn -0.1069 -0.3260 -0.9393
vn -0.2161 -0.2532 -0.9430
vn -0.0000 -0.2593 -0.9658
vn -0.8521 0.0211 -0.5230
vn -0.8212 -0.0383 -0.5693
vn -0.8991 -0.0500 -0.4350
vn -0.7134 0.7006 -0.0158
vn -0.8567 0.5139 -0.0435
vn -0.8935 0.4461 -0.0521
vn -0.3347 0.9332 -0.1309
vn -0.9923 -0.0907 -0.0841
vn -0.9091 -0.0645 -0.4116
vn -0.9905 -0.1343 -0.0299
vn -0.0000 -0.3939 -0.9191
vn 0.0052 -0.3939 -0.9191
vn -0.7719 -0.1169 -0.6249
vn -0.0000 -0.8922 -0.4517
vn -0.1634 -0.8802 -0.4457
vn -0.8416 -0.5241 -0.1301
vn -0.9880 -0.0055 -0.1541
vn -0.9885 0.0318 -0.1475
vn -0.9886 0.0302 -0.1478
vn -0.9877 0.0676 -0.1411
vn -0.5422 -0.8028 -0.2479
vn -0.1445 -0.1372 -0.9800
vn -0.0000 -0.1387 -0.9903
vn -0.0000 -0.0603 -0.9982
vn -0.2625 -0.0780 -0.9618
vn -0.4168 0.1964 -0.8875
vn -0.4187 0.1712 -0.8919
vn -0.3980 0.3533 -0.8466
vn -0.0000 0.2860 0.9582
vn -0.2211 0.2789 0.9345
vn -0.2071 0.1818 0.9613
vn -0.0000 0.1484 0.9889
vn -0.1796 -0.1954 0.9641
vn -0.0000 -0.1663 0.9861
vn -0.1706 -0.3820 0.9083
vn -0.0000 -0.3877 0.9218
vn -0.0606 -0.9232 -0.3794
vn -0.0386 -0.8517 -0.5226
vn -0.0000 -0.8523 -0.5230
vn -0.0000 -0.9622 -0.2723
vn -0.0985 -0.9923 -0.0747
vn -0.0000 -0.9972 -0.0751
vn -0.9532 -0.2663 0.1433
vn 0.4435 0.8962 0.0075
vn 0.4435 0.8962 0.0106
vn 0.9867 0.1511 -0.0596
vn 0.9063 -0.4153 -0.0787
vn 0.8904 -0.4522 -0.0526
vn 0.8899 -0.4532 -0.0519
vn 0.2857 -0.9583 -0.0016
vn 0.3264 0.7008 -0.6343
vn 0.3220 0.6912 -0.6470
vn 0.3268 0.7017 -0.6331
vn 0.7924 -0.0925 -0.6029
vn 0.7924 -0.0916 -0.6031
vn 0.7812 0.0252 -0.6237
vn 0.7482 -0.3532 -0.5617
vn 0.7756 -0.2730 -0.5691
vn 0.7691 -0.2939 -0.5676
vn 0.2072 -0.6962 -0.6873
vn 0.0264 -0.0047 -0.9996
vn 0.0194 -0.0042 -0.9998
vn 0.0051 0.0026 -1.0000
vn 0.0050 0.0039 -1.0000
vn 0.0047 0.0062 -1.0000
vn 0.0078 0.0053 -1.0000
vn 0.8337 0.5522 0.0091
vn 0.9041 -0.4274 -0.0029
vn 0.3314 0.7115 -0.6196
vn 0.4435 0.8962 0.0044
vn 0.7383 -0.3256 0.5906
vn 0.3316 0.9285 0.1674
vn 0.3306 0.9321 0.1476
vn 0.3198 0.9475 0.0021
vn 0.2021 -0.9794 -0.0032
vn 0.2832 -0.9368 0.2055
vn 0.0364 -0.0054 -0.9993
vn 0.8718 -0.4891 -0.0255
vn 0.7015 0.4392 0.5612
vn 0.9060 -0.4232 -0.0000
vn 0.5550 0.8094 -0.1918
vn 0.4508 0.8873 -0.0972
vn 0.4367 0.8956 -0.0850
vn 0.3348 0.9423 -0.0000
vn 0.3408 0.9401 -0.0000
vn 0.3343 0.8996 0.2811
vn 0.9935 -0.0327 -0.1090
vn 0.9928 -0.0231 -0.1173
vn 0.9666 0.1111 -0.2309
vn 0.0048 0.0062 1.0000
vn 0.6361 -0.7565 -0.1517
vn 0.6134 -0.7277 -0.3070
vn 0.6598 -0.6851 -0.3087
vn 0.7910 -0.5905 -0.1598
vn 0.4436 -0.8826 -0.1556
vn 0.5676 -0.7650 -0.3043
vn 0.3305 -0.8794 0.3426
vn 0.0025 -0.0032 1.0000
vn 0.2979 -0.9546 -0.0000
vn 0.8841 -0.4674 -0.0030
vn 0.9877 -0.1565 -0.0000
vn 0.9198 -0.3924 -0.0055
vn 0.9172 0.2093 -0.3390
vn 0.1164 -0.0260 -0.9929
vn 0.1042 -0.1164 -0.9877
vn 0.0981 -0.1458 -0.9844
vn 0.1202 -0.0188 -0.9926
vn 0.4082 0.8476 -0.3390
vn 0.1473 0.1258 -0.9810
vn 0.1285 0.0726 -0.9891
vn 0.1546 0.1233 0.9803
vn 0.1354 0.0048 0.9908
vn 0.7355 -0.5866 -0.3390
vn 0.1067 -0.1533 0.9824
vn 0.9010 -0.4339 -0.0000
vn 0.9383 -0.3439 0.0373
vn 0.9342 -0.3565 -0.0126
vn 0.2521 0.0652 0.9655
vn -0.0698 -0.4250 -0.9025
vn 0.1541 -0.4777 0.8649
vn 0.9546 -0.2956 0.0366
vn 0.9523 -0.3048 0.0136
vn 0.9966 -0.0824 -0.0000
vn 0.9965 -0.0840 -0.0000
vn 0.3930 0.9194 0.0176
vn 0.3929 0.9194 0.0176
vn 0.3354 0.9393 -0.0723
vn 0.3355 0.9393 -0.0717
vn 0.3313 0.9333 -0.1385
vn 0.3313 0.9333 -0.1384
vn 0.8319 0.5549 -0.0080
vn 0.9769 0.2124 -0.0251
vn 0.5812 0.8137 0.0118
vn 0.2161 -0.2532 -0.9430
vn 0.1069 -0.3260 -0.9393
vn 0.8521 0.0211 -0.5230
vn 0.8991 -0.0500 -0.4350
vn 0.8212 -0.0383 -0.5693
vn 0.7134 0.7006 -0.0158
vn 0.8567 0.5139 -0.0435
vn 0.8935 0.4461 -0.0521
vn 0.3347 0.9332 -0.1309
vn 0.9923 -0.0907 -0.0841
vn 0.9905 -0.1343 -0.0299
vn 0.9091 -0.0645 -0.4116
vn -0.0052 -0.3939 -0.9191
vn 0.7719 -0.1169 -0.6249
vn 0.1634 -0.8802 -0.4457
vn 0.8416 -0.5241 -0.1301
vn 0.9880 -0.0055 -0.1541
vn 0.9886 0.0302 -0.1478
vn 0.9885 0.0318 -0.1475
vn 0.9877 0.0676 -0.1411
vn 0.5422 -0.8028 -0.2479
vn 0.1445 -0.1372 -0.9800
vn 0.2625 -0.0780 -0.9618
vn 0.4168 0.1964 -0.8875
vn 0.4187 0.1712 -0.8919
vn 0.3980 0.3533 -0.8466
vn 0.2071 0.1818 0.9613
vn 0.2211 0.2789 0.9345
vn 0.1796 -0.1954 0.9641
vn 0.1706 -0.3820 0.9083
vn 0.0606 -0.9232 -0.3794
vn 0.0386 -0.8517 -0.5226
vn 0.0985 -0.9923 -0.0747
vn 0.9532 -0.2663 0.1433
vt 0.667084 0.940501
vt 0.622850 0.936288
vt 0.637192 0.777301
vt 0.680125 0.786345
vt 0.778619 0.947278
vt 0.711310 0.945088
vt 0.720831 0.795008
vt 0.779484 0.792761
vt 0.825394 0.790199
vt 0.833488 0.943751
vt 0.868212 0.787537
vt 0.912858 0.776932
vt 0.929840 0.934105
vt 0.884972 0.939522
vt 0.714574 0.724232
vt 0.696039 0.714657
vt 0.733379 0.730085
vt 0.772281 0.718539
vt 0.801951 0.723629
vt 0.830823 0.729884
vt 0.853613 0.714072
vt 0.799162 0.714136
vt 0.830634 0.704728
vt 0.741050 0.713188
vt 0.000000 0.000000
vt 0.741342 0.560285
vt 0.766589 0.556833
vt 0.792388 0.558330
vt 0.764534 0.487820
vt 0.786776 0.491360
vt 0.714101 0.708020
vt 0.712583 0.568277
vt 0.822979 0.564841
vt 0.741574 0.492958
vt 0.766602 0.435126
vt 0.790002 0.434353
vt 0.731418 0.436901
vt 0.716391 0.340426
vt 0.755830 0.330220
vt 0.638753 0.461334
vt 0.618340 0.367538
vt 0.672039 0.353274
vt 0.690520 0.446428
vt 0.680485 0.532892
vt 0.702038 0.491377
vt 0.654045 0.510979
vt 0.837703 0.430475
vt 0.887110 0.436412
vt 0.877081 0.492114
vt 0.826717 0.485663
vt 0.854192 0.520724
vt 0.781986 0.324769
vt 0.832766 0.328050
vt 0.885154 0.330378
vt 0.412113 0.125245
vt 0.308763 0.155481
vt 0.320030 0.284766
vt 0.421349 0.341751
vt 0.243468 0.250790
vt 0.189246 0.375142
vt 0.223784 0.365236
vt 0.354342 0.046901
vt 0.257671 0.110473
vt 0.421381 0.341698
vt 0.406854 0.560256
vt 0.555992 0.649544
vt 0.570176 0.565455
vt 0.573910 0.473212
vt 0.425273 0.343135
vt 0.169019 0.222436
vt 0.156620 0.382129
vt 0.273955 0.436715
vt 0.224119 0.500400
vt 0.200561 0.073259
vt 0.856523 0.272850
vt 0.807537 0.287061
vt 0.799541 0.224934
vt 0.853901 0.224207
vt 0.878062 0.307865
vt 0.833104 0.178284
vt 0.859863 0.191512
vt 0.727916 0.261076
vt 0.750439 0.251586
vt 0.651377 0.290427
vt 0.692775 0.275279
vt 0.599489 0.305927
vt 0.580922 0.224861
vt 0.625883 0.208907
vt 0.651844 0.196219
vt 0.679952 0.181429
vt 0.582476 0.085434
vt 0.608430 0.110677
vt 0.589281 0.132227
vt 0.546218 0.125450
vt 0.653837 0.147497
vt 0.616954 0.145700
vt 0.680029 0.119254
vt 0.712609 0.167487
vt 0.617952 0.061903
vt 0.638893 0.092351
vt 0.657750 0.040283
vt 0.503943 0.883298
vt 0.425878 0.969756
vt 0.336567 0.849383
vt 0.443890 0.730522
vt 0.239031 0.752370
vt 0.324573 0.616986
vt 0.145032 0.726510
vt 0.215030 0.582473
vt 0.066306 0.731349
vt 0.168986 0.542022
vt 0.373014 0.953246
vt 0.305843 0.865866
vt 0.205477 0.787872
vt 0.512273 0.794341
vt 0.447710 0.706901
vt 0.346286 0.607956
vt 0.761939 0.195159
vt 0.788115 0.135631
vt 0.814013 0.160448
s 1
usemtl Gun_Mat
f 29/1/1 20/2/2 6/3/2 30/4/1
f 22/5/3 21/6/3 25/7/3 24/8/3
f 24/8/4 36/9/5 35/10/6 22/5/4
f 3/11/7 5/12/7 4/13/7 23/14/7
f 28/15/8 30/4/9 6/3/10 7/16/10
f 24/8/11 25/7/12 2/17/12 1/18/13
f 3/11/14 36/9/15 37/19/16 26/20/14
f 3/11/17 26/20/17 8/21/18 5/12/18
f 8/21/19 26/20/20 37/19/21 34/22/21 10/23/19
f 2/17/22 28/15/23 31/24/24 1/18/22
f 10/25/25 34/25/26 1/25/26 31/25/26 9/25/25
f 1/18/27 31/24/27 32/26/27 27/27/27
f 1/18/28 27/27/28 33/28/28 34/22/28
f 2/17/29 25/7/29 30/4/9 28/15/8
f 21/6/30 29/1/1 30/4/1 25/7/30
f 33/28/31 27/27/31 38/29/31 40/30/31
f 28/15/23 7/16/32 9/31/32 31/24/24
f 32/26/33 31/24/34 9/31/34 11/32/35
f 34/22/36 33/28/37 12/33/38 10/23/39
f 37/25/21 1/25/40 34/25/21
f 36/9/15 24/8/11 1/18/13 37/19/16
f 36/9/5 3/11/41 23/14/41 35/10/6
f 27/27/42 32/26/42 39/34/42 38/29/42
f 40/30/43 38/29/43 41/35/43 43/36/43
f 38/29/44 39/34/44 42/37/45 41/35/46
f 41/35/46 42/37/45 18/38/47 19/39/47
f 47/40/48 46/41/48 45/42/48 49/43/48
f 13/44/49 39/34/49 32/26/33 11/32/35
f 47/40/48 49/43/48 48/45/48 15/46/48
f 42/37/50 39/34/51 48/45/51 49/43/52
f 15/46/53 48/45/54 39/34/54 13/44/53
f 51/47/55 50/48/56 16/49/57 52/50/58
f 43/36/59 51/47/55 52/50/58 40/30/60
f 12/33/38 33/28/37 40/30/61 14/51/61
f 16/49/62 14/51/62 40/30/63 52/50/63
f 51/47/55 43/36/59 17/52/64 53/53/64
f 50/48/56 51/47/55 53/53/65 54/54/65
f 42/37/50 49/43/52 45/42/66 18/38/66
f 43/36/43 41/35/43 19/39/43 17/52/67
f 74/25/68 64/25/68 58/25/68
f 55/25/68 61/25/68 62/25/68 72/25/68
f 60/25/68 66/25/68 44/25/68 54/25/68
f 58/25/68 64/25/68 65/25/68 59/25/68
f 56/25/68 57/25/68 63/25/68 62/25/68
f 75/25/68 61/25/68 55/25/68
f 59/25/68 65/25/68 66/25/68 60/25/68
f 61/55/69 68/56/69 69/57/69 62/58/69
f 69/57/70 80/59/71 79/60/72 70/61/73
f 75/62/74 78/63/74 68/56/74 61/55/74
f 80/59/71 69/57/70 68/56/75 78/63/76
f 56/64/77 62/58/78 71/65/79 54/66/80 75/67/77 55/68/77 72/69/77
f 80/59/71 73/70/81 76/71/82 79/60/72
f 62/58/83 69/57/83 70/61/83 63/72/83
f 63/72/84 70/61/84 79/60/84 76/71/84 74/73/84
f 57/25/68 74/25/68 63/25/68
f 62/25/68 56/25/68 72/25/68
f 71/65/79 62/58/78 63/72/85 74/73/86
f 73/70/81 80/59/71 78/63/76 67/74/87
f 75/75/88 77/76/89 82/77/90 78/78/88
f 54/25/68 44/25/68 75/25/68
f 44/79/91 53/53/91 77/76/91 75/75/91
f 78/78/92 82/77/92 83/80/93 67/81/93
f 77/76/94 53/53/94 17/52/94
f 17/52/67 19/39/43 84/82/95 81/83/96
f 17/52/67 81/83/96 82/77/90 77/76/89
f 18/38/66 45/42/66 86/84/97 85/85/98
f 18/38/47 85/85/99 84/82/100 19/39/47
f 46/41/48 88/86/101 86/84/102 45/42/48
f 94/87/103 95/88/104 86/84/102 88/86/101
f 96/89/105 85/85/98 86/84/97 95/88/106
f 97/90/107 84/82/100 85/85/99 96/89/105
f 92/91/108 93/92/109 89/93/110 87/94/111
f 89/93/112 93/92/113 91/95/114 90/96/112
f 91/95/115 97/90/107 96/89/105 90/96/116
f 90/96/116 96/89/105 95/88/106 89/93/117
f 87/94/118 89/93/118 95/88/104 94/87/103
f 97/90/119 91/95/114 98/97/120 99/98/121
f 92/91/108 100/99/122 101/100/123 93/92/109
f 93/92/113 101/100/124 98/97/120 91/95/114
f 100/99/125 102/101/125 98/97/126 101/100/126
f 99/102/127 98/103/127 111/104/127 112/105/127
f 112/105/128 111/104/128 113/106/129 114/107/130
f 114/107/130 113/106/129 115/108/131 116/109/131
f 105/110/132 106/111/132 116/109/132 115/108/132
f 98/103/133 102/112/134 103/113/135 111/104/136
f 104/114/137 113/106/138 111/104/136 103/113/135
f 105/110/139 115/108/139 113/106/138 104/114/137
f 109/115/140 99/102/141 112/105/142 108/116/143
f 108/116/143 112/105/142 114/107/144 107/117/145
f 107/117/145 114/107/144 116/109/146 106/111/147
f 110/118/148 99/98/149 109/119/150 117/120/151
f 84/82/95 97/90/119 99/98/121 81/83/96
f 82/77/152 110/118/148 117/120/151 83/80/153
f 81/83/96 99/98/121 110/118/154 82/77/90
f 132/1/155 133/4/155 6/3/156 20/2/156
f 125/5/157 127/8/157 128/7/157 124/6/157
f 127/8/158 125/5/158 138/10/159 139/9/160
f 120/11/161 126/14/161 4/13/161 5/12/161
f 131/15/162 7/16/163 6/3/163 133/4/164
f 127/8/165 118/18/166 119/17/167 128/7/167
f 120/11/168 129/20/168 140/19/169 139/9/170
f 120/11/171 5/12/18 8/21/18 129/20/171
f 8/21/19 10/23/19 137/22/172 140/19/172 129/20/173
f 119/17/174 118/18/174 134/24/175 131/15/176
f 10/25/25 9/25/25 134/25/177 118/25/177 137/25/177
f 118/18/178 130/27/178 135/26/178 134/24/178
f 118/18/179 137/22/179 136/28/179 130/27/179
f 119/17/180 131/15/162 133/4/164 128/7/180
f 124/6/181 128/7/181 133/4/155 132/1/155
f 136/28/182 143/30/182 141/29/182 130/27/182
f 131/15/176 134/24/175 9/31/32 7/16/32
f 135/26/183 11/32/184 9/31/185 134/24/185
f 137/22/186 10/23/39 12/33/38 136/28/187
f 140/25/172 137/25/172 118/25/188
f 139/9/170 140/19/169 118/18/166 127/8/165
f 139/9/160 138/10/159 126/14/189 120/11/189
f 130/27/190 141/29/190 142/34/190 135/26/190
f 143/30/191 146/36/191 144/35/191 141/29/191
f 141/29/192 144/35/193 145/37/194 142/34/192
f 144/35/193 123/39/195 122/38/195 145/37/194
f 47/40/196 149/43/196 147/42/196 46/41/196
f 13/44/197 11/32/184 135/26/183 142/34/197
f 47/40/196 15/46/196 148/45/196 149/43/196
f 145/37/198 149/43/199 148/45/200 142/34/200
f 15/46/53 13/44/53 142/34/201 148/45/201
f 150/47/202 151/50/203 16/49/204 50/48/205
f 146/36/206 143/30/207 151/50/203 150/47/202
f 12/33/38 14/51/208 143/30/208 136/28/187
f 16/49/62 151/50/209 143/30/209 14/51/62
f 150/47/202 152/53/210 121/52/210 146/36/206
f 50/48/205 54/54/211 152/53/211 150/47/202
f 145/37/198 122/38/212 147/42/212 149/43/199
f 146/36/191 121/52/213 123/39/191 144/35/191
f 74/25/68 156/25/68 162/25/68
f 153/25/68 168/25/68 160/25/68 159/25/68
f 158/25/68 54/25/68 44/25/68 164/25/68
f 156/25/68 157/25/68 163/25/68 162/25/68
f 154/25/68 160/25/68 161/25/68 155/25/68
f 169/25/68 153/25/68 159/25/68
f 157/25/68 158/25/68 164/25/68 163/25/68
f 159/55/214 160/58/214 166/57/214 165/56/214
f 166/57/215 167/61/216 172/60/217 173/59/218
f 169/62/219 159/55/219 165/56/219 171/63/219
f 173/59/218 171/63/220 165/56/221 166/57/215
f 154/64/222 168/69/222 153/68/222 169/67/222 54/66/80 71/65/79 160/58/223
f 173/59/218 172/60/217 76/71/82 73/70/81
f 160/58/224 161/72/224 167/61/224 166/57/224
f 161/72/84 74/73/84 76/71/84 172/60/84 167/61/84
f 155/25/68 161/25/68 74/25/68
f 160/25/68 168/25/68 154/25/68
f 71/65/79 74/73/86 161/72/225 160/58/223
f 73/70/81 67/74/87 171/63/220 173/59/218
f 169/75/226 171/78/226 175/77/227 170/76/228
f 54/25/68 169/25/68 44/25/68
f 44/79/229 169/75/229 170/76/229 152/53/229
f 171/78/230 67/81/93 83/80/93 175/77/230
f 170/76/231 121/52/231 152/53/231
f 121/52/213 174/83/232 176/82/233 123/39/191
f 121/52/213 170/76/228 175/77/227 174/83/232
f 122/38/212 177/85/234 178/84/235 147/42/212
f 122/38/195 123/39/195 176/82/236 177/85/237
f 46/41/196 147/42/196 178/84/238 88/86/239
f 94/87/240 88/86/239 178/84/238 183/88/241
f 184/89/242 183/88/243 178/84/235 177/85/234
f 185/90/244 184/89/242 177/85/237 176/82/236
f 92/91/108 87/94/111 179/93/245 182/92/246
f 179/93/247 180/96/247 181/95/248 182/92/249
f 181/95/250 180/96/251 184/89/242 185/90/244
f 180/96/251 179/93/252 183/88/243 184/89/242
f 87/94/253 94/87/240 183/88/241 179/93/253
f 185/90/254 187/98/255 186/97/256 181/95/248
f 92/91/108 182/92/246 188/100/257 100/99/122
f 182/92/249 181/95/248 186/97/256 188/100/258
f 100/99/125 188/100/259 186/97/259 102/101/125
f 187/102/260 191/105/260 190/104/260 186/103/260
f 191/105/261 193/107/262 192/106/263 190/104/261
f 193/107/262 195/109/264 194/108/264 192/106/263
f 105/110/265 194/108/265 195/109/265 106/111/265
f 186/103/266 190/104/267 103/113/135 102/112/134
f 104/114/268 103/113/135 190/104/267 192/106/269
f 105/110/270 104/114/268 192/106/269 194/108/270
f 109/115/140 108/116/143 191/105/271 187/102/272
f 108/116/143 107/117/145 193/107/273 191/105/271
f 107/117/145 106/111/147 195/109/274 193/107/273
f 189/118/275 117/120/151 109/119/150 187/98/276
f 176/82/233 174/83/232 187/98/255 185/90/254
f 175/77/277 83/80/153 117/120/151 189/118/275
f 174/83/232 175/77/227 189/118/278 187/98/255
