# Blender 4.3.2
# www.blender.org
mtllib yarn_write.mtl
o yarn_wire
v 0.000000 0.067360 -0.100000
v 0.000000 6.967360 -0.100000
v 0.070711 0.067360 -0.070711
v 0.070711 6.967360 -0.070711
v 0.100000 0.067360 0.000000
v 0.100000 6.967360 0.000000
v 0.070711 0.067360 0.070711
v 0.070711 6.967360 0.070711
v 0.000000 0.067360 0.100000
v 0.000000 6.967360 0.100000
v -0.070711 0.067360 0.070711
v -0.070711 6.967360 0.070711
v -0.100000 0.067360 0.000000
v -0.100000 6.967360 0.000000
v -0.070711 0.067360 -0.070711
v -0.070711 6.967360 -0.070711
v 0.000000 1.792360 -0.100000
v 0.000000 3.517360 -0.100000
v 0.000000 5.242360 -0.100000
v 0.070711 5.242360 -0.070711
v 0.070711 3.517360 -0.070711
v 0.070711 1.792360 -0.070711
v 0.100000 5.242360 0.000000
v 0.100000 3.517360 0.000000
v 0.100000 1.792360 0.000000
v 0.070711 5.242360 0.070711
v 0.070711 3.517360 0.070711
v 0.070711 1.792360 0.070711
v 0.000000 5.242360 0.100000
v 0.000000 3.517360 0.100000
v 0.000000 1.792360 0.100000
v -0.070711 5.242360 0.070711
v -0.070711 3.517360 0.070711
v -0.070711 1.792360 0.070711
v -0.100000 5.242360 0.000000
v -0.100000 3.517360 0.000000
v -0.100000 1.792360 0.000000
v -0.070711 5.242360 -0.070711
v -0.070711 3.517360 -0.070711
v -0.070711 1.792360 -0.070711
vn 0.3827 -0.0000 -0.9239
vn 0.9239 -0.0000 -0.3827
vn 0.9239 -0.0000 0.3827
vn 0.3827 -0.0000 0.9239
vn -0.3827 -0.0000 0.9239
vn -0.9239 -0.0000 0.3827
vn -0.9239 -0.0000 -0.3827
vn -0.3827 -0.0000 -0.9239
vt 0.950000 0.725000
vt 0.950000 0.950000
vt 0.837500 0.950000
vt 0.837500 0.725000
vt 0.725000 0.950000
vt 0.725000 0.725000
vt 0.612500 0.950000
vt 0.612500 0.725000
vt 0.500000 0.950000
vt 0.500000 0.725000
vt 0.387500 0.950000
vt 0.387500 0.725000
vt 0.275000 0.950000
vt 0.275000 0.725000
vt 0.162500 0.950000
vt 0.162500 0.725000
vt 0.050000 0.950000
vt 0.050000 0.725000
vt 0.162500 0.050000
vt 0.162500 0.275000
vt 0.050000 0.275000
vt 0.050000 0.050000
vt 0.162500 0.500000
vt 0.050000 0.500000
vt 0.275000 0.050000
vt 0.275000 0.275000
vt 0.275000 0.500000
vt 0.387500 0.050000
vt 0.387500 0.275000
vt 0.387500 0.500000
vt 0.500000 0.050000
vt 0.500000 0.275000
vt 0.500000 0.500000
vt 0.612500 0.050000
vt 0.612500 0.275000
vt 0.612500 0.500000
vt 0.725000 0.050000
vt 0.725000 0.275000
vt 0.725000 0.500000
vt 0.837500 0.050000
vt 0.837500 0.275000
vt 0.837500 0.500000
vt 0.950000 0.050000
vt 0.950000 0.275000
vt 0.950000 0.500000
s 0
usemtl yarn_mat
f 19/1/1 2/2/1 4/3/1 20/4/1
f 20/4/2 4/3/2 6/5/2 23/6/2
f 23/6/3 6/5/3 8/7/3 26/8/3
f 26/8/4 8/7/4 10/9/4 29/10/4
f 29/10/5 10/9/5 12/11/5 32/12/5
f 32/12/6 12/11/6 14/13/6 35/14/6
f 35/14/7 14/13/7 16/15/7 38/16/7
f 38/16/8 16/15/8 2/17/8 19/18/8
f 15/19/8 40/20/8 17/21/8 1/22/8
f 40/20/8 39/23/8 18/24/8 17/21/8
f 39/23/8 38/16/8 19/18/8 18/24/8
f 13/25/7 37/26/7 40/20/7 15/19/7
f 37/26/7 36/27/7 39/23/7 40/20/7
f 36/27/7 35/14/7 38/16/7 39/23/7
f 11/28/6 34/29/6 37/26/6 13/25/6
f 34/29/6 33/30/6 36/27/6 37/26/6
f 33/30/6 32/12/6 35/14/6 36/27/6
f 9/31/5 31/32/5 34/29/5 11/28/5
f 31/32/5 30/33/5 33/30/5 34/29/5
f 30/33/5 29/10/5 32/12/5 33/30/5
f 7/34/4 28/35/4 31/32/4 9/31/4
f 28/35/4 27/36/4 30/33/4 31/32/4
f 27/36/4 26/8/4 29/10/4 30/33/4
f 5/37/3 25/38/3 28/35/3 7/34/3
f 25/38/3 24/39/3 27/36/3 28/35/3
f 24/39/3 23/6/3 26/8/3 27/36/3
f 3/40/2 22/41/2 25/38/2 5/37/2
f 22/41/2 21/42/2 24/39/2 25/38/2
f 21/42/2 20/4/2 23/6/2 24/39/2
f 1/43/1 17/44/1 22/41/1 3/40/1
f 17/44/1 18/45/1 21/42/1 22/41/1
f 18/45/1 19/1/1 20/4/1 21/42/1
